<svg t="1608357889992" class="icon" viewBox="0 0 1024 1024" version="1.1" xmlns="http://www.w3.org/2000/svg" p-id="13018" width="200" height="200"><path d="M224 423.844571V231.753143l192-0.109714 0.091429 192.109714-192.091429 0.091428zM416.091429 167.753143h-192.182858A64 64 0 0 0 160 231.68v192.182857a64 64 0 0 0 63.908571 63.908572h192.182858a64 64 0 0 0 63.908571-63.926858V231.68a64 64 0 0 0-63.908571-63.908571v-0.036572zM224 807.826286V615.734857l192-0.091428 0.091429 192.091428-192.091429 0.109714z m192.091429-256.109715h-192.182858A64 64 0 0 0 160 615.68v192.182857a64 64 0 0 0 63.908571 63.908572h192.182858a64 64 0 0 0 63.908571-63.926858V615.68a64 64 0 0 0-63.908571-63.908571v-0.036572z m287.981714-88.118857l-135.862857-135.844571 135.716571-135.844572 135.917714 135.753143-135.771428 135.936z m181.028571-181.028571L749.165714 146.688a64 64 0 0 0-90.368 0l-135.899428 135.862857a63.451429 63.451429 0 0 0-18.651429 45.056 63.451429 63.451429 0 0 0 18.651429 45.330286l135.899428 135.917714a63.908571 63.908571 0 0 0 90.368-0.018286l135.899429-135.917714a63.926857 63.926857 0 0 0 0-90.349714v0.018286zM608 807.862857V615.734857l192-0.091428 0.091429 192.091428-192.091429 0.109714z m192.091429-256.109714h-192.182858a64 64 0 0 0-63.908571 63.945143v192.182857a64 64 0 0 0 63.908571 63.908571h192.182858a64 64 0 0 0 63.908571-63.926857V615.68a64 64 0 0 0-63.908571-63.908571v-0.036572z" fill="#ffffff" p-id="13019"></path></svg>